<svg version="1.1" id="Layer_1" xmlns="http://www.w3.org/2000/svg" xmlns:xlink="http://www.w3.org/1999/xlink" x="0px" y="0px"
	 width="100%" viewBox="0 0 769 402" enable-background="new 0 0 769 402" xml:space="preserve">
<path fill="#000000" opacity="1.000000" stroke="none" 
	d="
M533.000000,403.000000 
	C355.333344,403.000000 178.166672,403.000000 1.000000,403.000000 
	C1.000000,269.000000 1.000000,135.000000 1.000000,1.000000 
	C257.333344,1.000000 513.666687,1.000000 770.000000,1.000000 
	C770.000000,135.000000 770.000000,269.000000 770.000000,403.000000 
	C691.166687,403.000000 612.333313,403.000000 533.000000,403.000000 
M255.887253,219.784698 
	C257.033783,219.598022 258.180298,219.411331 260.113037,219.541443 
	C261.448425,221.064774 262.783844,222.588104 264.859100,224.955414 
	C287.795074,224.955414 312.099091,224.955414 336.377991,224.955414 
	C343.663055,242.496307 351.143982,259.782440 362.561707,274.822662 
	C367.799011,281.721588 374.388824,287.932434 384.821716,283.898102 
	C384.821716,287.027313 384.821716,289.794708 384.821716,293.134766 
	C363.476868,293.134766 342.275238,293.134766 321.356567,293.134766 
	C321.356567,320.113647 321.356567,346.519623 321.356567,372.645508 
	C460.447876,372.645508 599.182373,372.645508 737.786499,372.645508 
	C737.786499,310.346375 737.786499,248.402023 737.786499,186.457657 
	C737.606018,186.444702 737.425537,186.431747 737.244995,186.418793 
	C737.077026,189.255661 736.908997,192.092529 736.715149,195.365982 
	C720.501343,186.929428 704.857544,178.721329 689.152039,170.633087 
	C664.693420,158.037018 640.192505,145.523071 615.710266,132.972809 
	C606.529053,128.266235 597.349976,123.555389 588.169922,118.846497 
	C588.293579,118.497276 588.417236,118.148064 588.540955,117.798843 
	C638.280212,117.798843 688.019470,117.798843 737.722534,117.798843 
	C737.722534,84.711990 737.722534,51.974216 737.722534,19.288607 
	C737.138184,19.156897 736.828735,19.025467 736.519470,19.026134 
	C588.774109,19.344805 441.028809,19.687943 293.283295,19.902744 
	C289.889709,19.907679 289.229309,21.600544 288.428375,24.055136 
	C284.004059,37.614288 279.547974,51.163536 274.981842,64.675301 
	C274.453888,66.237617 273.357086,67.713501 272.215851,68.943527 
	C268.339417,73.121613 264.324738,77.171432 260.362854,81.270241 
	C260.590332,81.592857 260.817841,81.915482 261.045349,82.238098 
	C258.782318,82.238098 256.519287,82.238098 253.999893,82.238098 
	C253.999893,87.991928 254.019775,93.467400 253.996216,98.942688 
	C253.923828,115.763443 253.999268,132.222687 248.379013,148.840424 
	C238.560364,177.871750 228.147781,206.586594 215.877365,234.659912 
	C213.074158,241.073318 209.640533,247.859497 209.383301,254.584503 
	C209.003540,264.513275 207.490662,273.909515 204.381027,283.244171 
	C199.668533,297.390503 195.271927,311.641724 190.615814,325.807220 
	C186.349655,338.786346 181.917435,351.710938 177.558411,364.659546 
	C177.299194,364.609833 177.039993,364.560150 176.780777,364.510437 
	C176.780777,343.748199 176.780777,322.985992 176.780777,302.283508 
	C123.365791,302.283508 70.295403,302.283508 17.286732,302.283508 
	C17.286732,325.973175 17.286732,349.378174 17.286732,373.000092 
	C19.383265,373.000092 21.195021,373.022858 23.006071,372.996765 
	C82.838318,372.134735 142.710190,374.973755 202.515289,371.091461 
	C205.383942,370.905243 206.270721,369.824371 207.065186,367.365662 
	C212.537476,350.430115 218.229111,333.565613 223.736801,316.641357 
	C234.211105,284.455597 244.609543,252.245163 255.887253,219.784698 
M19.677715,19.000284 
	C15.714783,18.547724 17.049671,21.550894 17.044756,23.334097 
	C16.978134,47.499420 17.000002,71.664993 17.000000,95.830498 
	C17.000000,98.781288 17.000000,101.732086 17.000000,104.769402 
	C70.528046,104.769402 123.598045,104.769402 176.766449,104.769402 
	C176.766449,76.134079 176.766449,47.729874 176.766449,19.000019 
	C124.572960,19.000019 72.612358,19.000019 19.677715,19.000284 
M174.384186,268.035248 
	C136.865677,249.147064 99.347771,230.257675 61.827991,211.372040 
	C56.472080,208.676117 51.107094,205.998245 45.063667,202.969955 
	C58.312233,196.348541 70.684349,190.204788 83.021523,183.991653 
	C116.942787,166.908539 150.859177,149.815582 184.726288,132.625656 
	C186.083878,131.936600 187.807480,130.252106 187.853897,128.976578 
	C188.141891,121.061897 187.998825,113.131538 187.998825,104.306091 
	C130.518234,133.910263 73.794792,163.124496 17.000053,192.375443 
	C17.000053,198.676758 16.816362,204.846405 17.131346,210.990509 
	C17.208494,212.495377 18.576622,214.546417 19.928938,215.277023 
	C31.110661,221.318100 42.408955,227.145157 53.708920,232.965240 
	C76.158897,244.528137 98.611122,256.087006 121.103012,267.568024 
	C139.157318,276.783844 157.280746,285.864227 175.352280,295.046478 
	C179.528381,297.168365 183.617889,299.460632 188.000000,301.810059 
	C188.000000,297.239655 187.403381,293.131195 188.112961,289.262299 
	C190.162140,278.089233 185.815002,271.351410 174.384186,268.035248 
z"/>
<path fill="#FFFFFF" opacity="1.000000" stroke="none" 
	d="
M255.039505,220.044983 
	C244.609543,252.245163 234.211105,284.455597 223.736801,316.641357 
	C218.229111,333.565613 212.537476,350.430115 207.065186,367.365662 
	C206.270721,369.824371 205.383942,370.905243 202.515289,371.091461 
	C142.710190,374.973755 82.838318,372.134735 23.006071,372.996765 
	C21.195021,373.022858 19.383265,373.000092 17.286732,373.000092 
	C17.286732,349.378174 17.286732,325.973175 17.286732,302.283508 
	C70.295403,302.283508 123.365791,302.283508 176.780777,302.283508 
	C176.780777,322.985992 176.780777,343.748199 176.780777,364.510437 
	C177.039993,364.560150 177.299194,364.609833 177.558411,364.659546 
	C181.917435,351.710938 186.349655,338.786346 190.615814,325.807220 
	C195.271927,311.641724 199.668533,297.390503 204.381027,283.244171 
	C207.490662,273.909515 209.003540,264.513275 209.383301,254.584503 
	C209.640533,247.859497 213.074158,241.073318 215.877365,234.659912 
	C228.147781,206.586594 238.560364,177.871750 248.379013,148.840424 
	C253.999268,132.222687 253.923828,115.763443 253.996216,98.942688 
	C254.019775,93.467400 253.999893,87.991928 253.999893,82.238098 
	C256.519287,82.238098 258.782318,82.238098 261.045349,82.238098 
	C260.817841,81.915482 260.590332,81.592857 260.362854,81.270241 
	C264.324738,77.171432 268.339417,73.121613 272.215851,68.943527 
	C273.357086,67.713501 274.453888,66.237617 274.981842,64.675301 
	C279.547974,51.163536 284.004059,37.614288 288.428375,24.055136 
	C289.229309,21.600544 289.889709,19.907679 293.283295,19.902744 
	C441.028809,19.687943 588.774109,19.344805 736.519470,19.026134 
	C736.828735,19.025467 737.138184,19.156897 737.722534,19.288607 
	C737.722534,51.974216 737.722534,84.711990 737.722534,117.798843 
	C688.019470,117.798843 638.280212,117.798843 588.540955,117.798843 
	C588.417236,118.148064 588.293579,118.497276 588.169922,118.846497 
	C597.349976,123.555389 606.529053,128.266235 615.710266,132.972809 
	C640.192505,145.523071 664.693420,158.037018 689.152039,170.633087 
	C704.857544,178.721329 720.501343,186.929428 736.715149,195.365982 
	C736.908997,192.092529 737.077026,189.255661 737.244995,186.418793 
	C737.425537,186.431747 737.606018,186.444702 737.786499,186.457657 
	C737.786499,248.402023 737.786499,310.346375 737.786499,372.645508 
	C599.182373,372.645508 460.447876,372.645508 321.356567,372.645508 
	C321.356567,346.519623 321.356567,320.113647 321.356567,293.134766 
	C342.275238,293.134766 363.476868,293.134766 384.821716,293.134766 
	C384.821716,289.794708 384.821716,287.027313 384.821716,283.898102 
	C374.388824,287.932434 367.799011,281.721588 362.561707,274.822662 
	C351.143982,259.782440 343.663055,242.496307 336.377991,224.955414 
	C312.099091,224.955414 287.795074,224.955414 264.859100,224.955414 
	C262.783844,222.588104 261.448425,221.064774 259.607880,219.049072 
	C259.916748,214.017944 260.730743,209.479202 261.544769,204.940445 
	C261.199677,204.836853 260.854553,204.733261 260.509460,204.629684 
	C258.686157,209.768112 256.862823,214.906540 255.039505,220.044983 
M287.553314,120.589371 
	C286.791290,123.307968 286.029266,126.026566 285.239868,128.842926 
	C287.595215,128.842926 289.701263,128.842926 292.144165,128.842926 
	C291.049316,125.727913 290.042633,122.863724 289.695160,119.773224 
	C291.217804,115.348160 292.740448,110.923096 294.805298,105.992210 
	C295.415070,105.070389 296.281799,104.226860 296.590576,103.213326 
	C297.999908,98.587555 299.164093,93.885757 300.636353,89.281639 
	C300.929810,88.363983 302.185516,87.754036 303.353699,87.598656 
	C304.796661,89.608597 306.239624,91.618546 307.682587,93.628487 
	C307.940308,93.556099 308.198059,93.483704 308.455811,93.411316 
	C307.805908,89.679375 307.156036,85.947433 306.429474,81.775146 
	C332.497681,81.775146 358.717438,81.775146 384.638519,81.775146 
	C384.638519,76.199715 384.638519,71.121498 384.638519,65.681816 
	C363.210968,65.681816 342.144104,65.681816 320.922974,65.681816 
	C320.922974,50.689602 320.922974,36.086498 320.922974,21.483395 
	C316.567932,32.832771 312.645264,44.275936 309.027588,55.814728 
	C306.101227,65.148415 303.542114,74.597252 300.101318,83.893547 
	C298.463959,89.361404 296.828094,94.829712 295.188080,100.296791 
	C294.797760,101.597870 294.393585,102.894791 293.284576,104.212372 
	C291.515594,109.465935 289.746613,114.719490 287.553314,120.589371 
M658.998413,232.502441 
	C676.920471,223.537521 694.842529,214.572601 713.419434,205.280106 
	C671.060669,184.067902 629.239075,163.124680 587.208496,142.076813 
	C587.208496,156.887360 587.208496,171.275269 587.208496,186.027527 
	C589.143799,186.027527 590.890869,186.027527 592.964111,186.027527 
	C592.964111,212.762939 592.964111,239.135635 592.964111,266.067200 
	C615.098450,254.866577 636.739075,243.915756 658.998413,232.502441 
M710.001099,229.498108 
	C690.132935,239.725739 670.268616,249.960938 650.395386,260.178772 
	C632.365845,269.448669 614.319397,278.685638 596.306030,287.986877 
	C594.946167,288.689056 593.791931,289.789490 592.542114,290.704803 
	C592.795227,291.021088 593.048401,291.337402 593.301514,291.653687 
	C641.167908,291.653687 689.034302,291.653687 736.701172,291.653687 
	C736.701172,266.264069 736.701172,241.221359 736.701172,215.608429 
	C727.694641,220.244873 719.156738,224.640060 710.001099,229.498108 
M547.388855,225.997238 
	C546.563843,226.282028 545.738892,226.566833 544.913879,226.851624 
	C544.999268,227.162537 545.084595,227.473450 545.169983,227.784363 
	C555.731934,227.784363 566.293823,227.784363 577.120544,227.784363 
	C576.928955,226.363434 576.770752,225.190338 576.688049,224.577209 
	C573.357422,225.241531 570.462280,225.818985 566.977295,226.514099 
	C567.117188,224.478516 567.199463,223.280777 567.276733,222.156113 
	C569.378174,222.008850 571.127625,221.886261 573.090515,221.748703 
	C572.940979,216.566971 565.762939,215.581512 566.914001,209.878540 
	C568.064575,204.177689 572.340210,203.381195 576.726074,202.733139 
	C576.726074,200.046234 576.726074,197.639862 576.726074,194.308960 
	C566.002686,195.273422 555.638611,196.205566 544.513489,197.206146 
	C545.146912,200.366028 545.708923,203.169434 546.343628,206.335815 
	C556.450317,200.797165 563.087280,205.879562 562.095886,214.592743 
	C561.793701,217.248184 562.822693,220.031326 562.851440,222.760071 
	C562.862549,223.820862 561.945679,225.619522 561.180176,225.778900 
	C560.188538,225.985382 558.480957,225.179810 557.892883,224.279785 
	C557.167175,223.169266 557.123474,221.520782 557.056702,220.092072 
	C556.933594,217.456711 557.548828,214.648407 556.815552,212.227478 
	C556.306274,210.546188 554.121277,208.338501 552.567749,208.241440 
	C550.015259,208.081970 547.643921,209.465668 547.940063,213.090347 
	C548.288757,217.357971 548.184875,221.662582 547.388855,225.997238 
M373.524719,231.017593 
	C377.001038,237.335541 380.477325,243.653488 383.953613,249.971436 
	C384.225952,249.802078 384.498291,249.632721 384.770630,249.463364 
	C384.770630,241.417770 384.770630,233.372162 384.770630,225.189438 
	C379.856964,225.189438 375.173645,225.189438 370.142548,225.189438 
	C371.215057,227.129456 372.125702,228.776657 373.524719,231.017593 
M466.687164,204.005981 
	C472.404572,204.005981 478.122009,204.005981 483.714478,204.005981 
	C483.714478,201.636154 483.714478,199.891617 483.714478,197.194778 
	C476.472351,199.021378 469.745178,200.718079 463.018005,202.414795 
	C463.142242,202.943466 463.266510,203.472122 463.390747,204.000793 
	C464.208496,204.000793 465.026215,204.000793 466.687164,204.005981 
M542.006165,198.641129 
	C540.403076,198.102798 538.085754,196.614365 537.320007,197.189972 
	C533.935608,199.733810 530.506897,197.758224 527.150146,198.011017 
	C526.719849,198.043427 526.309814,198.345749 525.780884,198.569321 
	C525.933655,200.426956 526.079102,202.194885 526.187256,203.509750 
	C531.652222,203.509750 536.717346,203.509750 542.009766,203.509750 
	C542.009766,202.174896 542.009766,200.868835 542.006165,198.641129 
M359.891693,192.395035 
	C357.342102,190.914749 354.792511,189.434479 351.411530,187.471527 
	C354.438446,194.013657 357.304230,200.207535 360.550293,207.223328 
	C363.401672,203.646378 364.906830,201.474014 360.622101,199.633987 
	C360.055145,199.390503 359.927673,198.123688 359.596649,197.330811 
	C363.866547,196.373276 360.079254,194.576309 359.891693,192.395035 
M518.467529,227.999893 
	C521.284668,227.999542 524.114380,228.145767 526.910767,227.904480 
	C527.692444,227.837021 528.375549,226.626419 529.103882,225.940216 
	C527.320862,225.408035 526.428711,226.098038 525.571716,226.056763 
	C520.914062,225.832504 515.450195,227.350983 511.903442,226.342026 
	C506.257355,224.735886 502.132935,224.917358 496.991516,227.999893 
	C504.224457,227.999893 510.850555,227.999893 518.467529,227.999893 
M268.630127,195.985611 
	C266.808105,195.985611 264.986053,195.985611 263.164032,195.985611 
	C264.100037,197.287781 265.014374,197.515610 265.913147,197.465286 
	C273.580597,197.036026 281.247711,196.592606 288.908722,196.063522 
	C290.606750,195.946259 292.286621,195.500290 293.950195,195.102493 
	C294.059906,195.076248 294.025879,193.744064 293.945557,193.731308 
	C292.049438,193.429947 290.141052,193.184799 288.226562,193.036804 
	C287.790192,193.003067 287.337280,193.465134 286.867950,193.533020 
	C281.092102,194.368454 275.311798,195.173050 268.630127,195.985611 
M517.764893,197.993103 
	C516.679382,198.093399 515.593933,198.193695 514.413757,198.302750 
	C514.734741,200.717239 515.010864,202.793884 515.518311,206.610245 
	C517.930176,204.539322 519.958435,203.478073 520.871460,201.807343 
	C521.659729,200.364746 522.217224,197.596191 517.764893,197.993103 
M483.374268,225.000214 
	C481.024658,225.652023 478.675049,226.303848 476.325439,226.955673 
	C476.431335,227.197037 476.537231,227.438416 476.643127,227.679779 
	C481.232483,227.679779 485.821869,227.679779 491.297089,227.679779 
	C488.334778,226.559448 486.275360,225.780594 483.374268,225.000214 
M572.999390,212.499039 
	C574.153320,213.639038 575.307251,214.779053 576.763062,216.217255 
	C576.763062,212.933731 576.763062,210.531464 576.763062,207.956192 
	C574.136902,208.324677 569.996033,206.660797 572.999390,212.499039 
z"/>
<path fill="#FFFFFF" opacity="1.000000" stroke="none" 
	d="
M20.164734,19.000153 
	C72.612358,19.000019 124.572960,19.000019 176.766449,19.000019 
	C176.766449,47.729874 176.766449,76.134079 176.766449,104.769402 
	C123.598045,104.769402 70.528046,104.769402 17.000000,104.769402 
	C17.000000,101.732086 17.000000,98.781288 17.000000,95.830498 
	C17.000002,71.664993 16.978134,47.499420 17.044756,23.334097 
	C17.049671,21.550894 15.714783,18.547724 20.164734,19.000153 
z"/>
<path fill="#FFFFFF" opacity="1.000000" stroke="none" 
	d="
M174.692093,268.267639 
	C185.815002,271.351410 190.162140,278.089233 188.112961,289.262299 
	C187.403381,293.131195 188.000000,297.239655 188.000000,301.810059 
	C183.617889,299.460632 179.528381,297.168365 175.352280,295.046478 
	C157.280746,285.864227 139.157318,276.783844 121.103012,267.568024 
	C98.611122,256.087006 76.158897,244.528137 53.708920,232.965240 
	C42.408955,227.145157 31.110661,221.318100 19.928938,215.277023 
	C18.576622,214.546417 17.208494,212.495377 17.131346,210.990509 
	C16.816362,204.846405 17.000053,198.676758 17.000053,192.375443 
	C73.794792,163.124496 130.518234,133.910263 187.998825,104.306091 
	C187.998825,113.131538 188.141891,121.061897 187.853897,128.976578 
	C187.807480,130.252106 186.083878,131.936600 184.726288,132.625656 
	C150.859177,149.815582 116.942787,166.908539 83.021523,183.991653 
	C70.684349,190.204788 58.312233,196.348541 45.063667,202.969955 
	C51.107094,205.998245 56.472080,208.676117 61.827991,211.372040 
	C99.347771,230.257675 136.865677,249.147064 174.692093,268.267639 
z"/>
<path fill="#909090" opacity="1.000000" stroke="none" 
	d="
M255.463379,219.914841 
	C256.862823,214.906540 258.686157,209.768112 260.509460,204.629684 
	C260.854553,204.733261 261.199677,204.836853 261.544769,204.940445 
	C260.730743,209.479202 259.916748,214.017944 259.214783,218.890671 
	C258.180298,219.411331 257.033783,219.598022 255.463379,219.914841 
z"/>
<path fill="#000000" opacity="1.000000" stroke="none" 
	d="
M658.689087,232.733688 
	C636.739075,243.915756 615.098450,254.866577 592.964111,266.067200 
	C592.964111,239.135635 592.964111,212.762939 592.964111,186.027527 
	C590.890869,186.027527 589.143799,186.027527 587.208496,186.027527 
	C587.208496,171.275269 587.208496,156.887360 587.208496,142.076813 
	C629.239075,163.124680 671.060669,184.067902 713.419434,205.280106 
	C694.842529,214.572601 676.920471,223.537521 658.689087,232.733688 
z"/>
<path fill="#000000" opacity="1.000000" stroke="none" 
	d="
M710.309937,229.266693 
	C719.156738,224.640060 727.694641,220.244873 736.701172,215.608429 
	C736.701172,241.221359 736.701172,266.264069 736.701172,291.653687 
	C689.034302,291.653687 641.167908,291.653687 593.301514,291.653687 
	C593.048401,291.337402 592.795227,291.021088 592.542114,290.704803 
	C593.791931,289.789490 594.946167,288.689056 596.306030,287.986877 
	C614.319397,278.685638 632.365845,269.448669 650.395386,260.178772 
	C670.268616,249.960938 690.132935,239.725739 710.309937,229.266693 
z"/>
<path fill="#000000" opacity="1.000000" stroke="none" 
	d="
M300.820129,83.995018 
	C303.542114,74.597252 306.101227,65.148415 309.027588,55.814728 
	C312.645264,44.275936 316.567932,32.832771 320.922974,21.483395 
	C320.922974,36.086498 320.922974,50.689602 320.922974,65.681816 
	C342.144104,65.681816 363.210968,65.681816 384.638519,65.681816 
	C384.638519,71.121498 384.638519,76.199715 384.638519,81.775146 
	C358.717438,81.775146 332.497681,81.775146 306.429474,81.775146 
	C307.156036,85.947433 307.805908,89.679375 308.455811,93.411316 
	C308.198059,93.483704 307.940308,93.556099 307.682587,93.628487 
	C306.239624,91.618546 304.796661,89.608597 303.171021,86.965652 
	C302.265594,85.553452 301.542847,84.774239 300.820129,83.995018 
z"/>
<path fill="#000000" opacity="1.000000" stroke="none" 
	d="
M547.833008,225.974197 
	C548.184875,221.662582 548.288757,217.357971 547.940063,213.090347 
	C547.643921,209.465668 550.015259,208.081970 552.567749,208.241440 
	C554.121277,208.338501 556.306274,210.546188 556.815552,212.227478 
	C557.548828,214.648407 556.933594,217.456711 557.056702,220.092072 
	C557.123474,221.520782 557.167175,223.169266 557.892883,224.279785 
	C558.480957,225.179810 560.188538,225.985382 561.180176,225.778900 
	C561.945679,225.619522 562.862549,223.820862 562.851440,222.760071 
	C562.822693,220.031326 561.793701,217.248184 562.095886,214.592743 
	C563.087280,205.879562 556.450317,200.797165 546.343628,206.335815 
	C545.708923,203.169434 545.146912,200.366028 544.513489,197.206146 
	C555.638611,196.205566 566.002686,195.273422 576.726074,194.308960 
	C576.726074,197.639862 576.726074,200.046234 576.726074,202.733139 
	C572.340210,203.381195 568.064575,204.177689 566.914001,209.878540 
	C565.762939,215.581512 572.940979,216.566971 573.090515,221.748703 
	C571.127625,221.886261 569.378174,222.008850 567.276733,222.156113 
	C567.199463,223.280777 567.117188,224.478516 566.977295,226.514099 
	C570.462280,225.818985 573.357422,225.241531 576.688049,224.577209 
	C576.770752,225.190338 576.928955,226.363434 577.120544,227.784363 
	C566.293823,227.784363 555.731934,227.784363 545.169983,227.784363 
	C545.084595,227.473450 544.999268,227.162537 544.913879,226.851624 
	C545.738892,226.566833 546.563843,226.282028 547.833008,225.974197 
z"/>
<path fill="#000000" opacity="1.000000" stroke="none" 
	d="
M373.280518,230.720734 
	C372.125702,228.776657 371.215057,227.129456 370.142548,225.189438 
	C375.173645,225.189438 379.856964,225.189438 384.770630,225.189438 
	C384.770630,233.372162 384.770630,241.417770 384.770630,249.463364 
	C384.498291,249.632721 384.225952,249.802078 383.953613,249.971436 
	C380.477325,243.653488 377.001038,237.335541 373.280518,230.720734 
z"/>
<path fill="#000000" opacity="1.000000" stroke="none" 
	d="
M466.265564,204.003387 
	C465.026215,204.000793 464.208496,204.000793 463.390747,204.000793 
	C463.266510,203.472122 463.142242,202.943466 463.018005,202.414795 
	C469.745178,200.718079 476.472351,199.021378 483.714478,197.194778 
	C483.714478,199.891617 483.714478,201.636154 483.714478,204.005981 
	C478.122009,204.005981 472.404572,204.005981 466.265564,204.003387 
z"/>
<path fill="#050505" opacity="1.000000" stroke="none" 
	d="
M542.007935,199.101959 
	C542.009766,200.868835 542.009766,202.174896 542.009766,203.509750 
	C536.717346,203.509750 531.652222,203.509750 526.187256,203.509750 
	C526.079102,202.194885 525.933655,200.426956 525.780884,198.569321 
	C526.309814,198.345749 526.719849,198.043427 527.150146,198.011017 
	C530.506897,197.758224 533.935608,199.733810 537.320007,197.189972 
	C538.085754,196.614365 540.403076,198.102798 542.007935,199.101959 
z"/>
<path fill="#070707" opacity="1.000000" stroke="none" 
	d="
M359.960999,192.781921 
	C360.079254,194.576309 363.866547,196.373276 359.596680,197.330811 
	C359.927673,198.123688 360.055145,199.390503 360.622101,199.633987 
	C364.906830,201.474014 363.401672,203.646378 360.550293,207.223328 
	C357.304230,200.207535 354.438446,194.013657 351.411530,187.471527 
	C354.792511,189.434479 357.342102,190.914749 359.960999,192.781921 
z"/>
<path fill="#000000" opacity="1.000000" stroke="none" 
	d="
M517.972107,227.999893 
	C510.850555,227.999893 504.224457,227.999893 496.991516,227.999893 
	C502.132935,224.917358 506.257355,224.735886 511.903442,226.342026 
	C515.450195,227.350983 520.914062,225.832504 525.571716,226.056763 
	C526.428711,226.098038 527.320862,225.408035 529.103882,225.940216 
	C528.375549,226.626419 527.692444,227.837021 526.910767,227.904480 
	C524.114380,228.145767 521.284668,227.999542 517.972107,227.999893 
z"/>
<path fill="#939393" opacity="1.000000" stroke="none" 
	d="
M300.460724,83.944290 
	C301.542847,84.774239 302.265594,85.553452 302.992920,86.667427 
	C302.185516,87.754036 300.929810,88.363983 300.636353,89.281639 
	C299.164093,93.885757 297.999908,98.587555 296.590576,103.213326 
	C296.281799,104.226860 295.415070,105.070389 294.454041,105.862656 
	C294.067139,105.219948 294.031433,104.706779 293.995758,104.193619 
	C294.393585,102.894791 294.797760,101.597870 295.188080,100.296791 
	C296.828094,94.829712 298.463959,89.361404 300.460724,83.944290 
z"/>
<path fill="#070707" opacity="1.000000" stroke="none" 
	d="
M269.081360,195.985611 
	C275.311798,195.173050 281.092102,194.368454 286.867950,193.533020 
	C287.337280,193.465134 287.790192,193.003067 288.226562,193.036804 
	C290.141052,193.184799 292.049438,193.429947 293.945557,193.731308 
	C294.025879,193.744064 294.059906,195.076248 293.950195,195.102493 
	C292.286621,195.500290 290.606750,195.946259 288.908722,196.063522 
	C281.247711,196.592606 273.580597,197.036026 265.913147,197.465286 
	C265.014374,197.515610 264.100037,197.287781 263.164032,195.985611 
	C264.986053,195.985611 266.808105,195.985611 269.081360,195.985611 
z"/>
<path fill="#030303" opacity="1.000000" stroke="none" 
	d="
M518.204712,197.993866 
	C522.217224,197.596191 521.659729,200.364746 520.871460,201.807343 
	C519.958435,203.478073 517.930176,204.539322 515.518311,206.610245 
	C515.010864,202.793884 514.734741,200.717239 514.413757,198.302750 
	C515.593933,198.193695 516.679382,198.093399 518.204712,197.993866 
z"/>
<path fill="#909090" opacity="1.000000" stroke="none" 
	d="
M293.640167,104.202995 
	C294.031433,104.706779 294.067139,105.219948 294.182983,106.115570 
	C292.740448,110.923096 291.217804,115.348160 289.101868,119.844940 
	C288.331573,119.935455 288.154633,119.954254 287.977661,119.973053 
	C289.746613,114.719490 291.515594,109.465935 293.640167,104.202995 
z"/>
<path fill="#070707" opacity="1.000000" stroke="none" 
	d="
M287.765503,120.281212 
	C288.154633,119.954254 288.331573,119.935455 288.772247,119.958092 
	C290.042633,122.863724 291.049316,125.727913 292.144165,128.842926 
	C289.701263,128.842926 287.595215,128.842926 285.239868,128.842926 
	C286.029266,126.026566 286.791290,123.307968 287.765503,120.281212 
z"/>
<path fill="#000000" opacity="1.000000" stroke="none" 
	d="
M483.795105,225.000977 
	C486.275360,225.780594 488.334778,226.559448 491.297089,227.679779 
	C485.821869,227.679779 481.232483,227.679779 476.643127,227.679779 
	C476.537231,227.438416 476.431335,227.197037 476.325439,226.955673 
	C478.675049,226.303848 481.024658,225.652023 483.795105,225.000977 
z"/>
<path fill="#000000" opacity="1.000000" stroke="none" 
	d="
M572.735229,212.239960 
	C569.996033,206.660797 574.136902,208.324677 576.763062,207.956192 
	C576.763062,210.531464 576.763062,212.933731 576.763062,216.217255 
	C575.307251,214.779053 574.153320,213.639038 572.735229,212.239960 
z"/>
</svg>